<svg id="Layer_1" data-name="Layer 1" xmlns="http://www.w3.org/2000/svg" viewBox="0 0 336.58 336.58"><title>asp.net</title><circle cx="168.29" cy="168.29" r="168.29" fill="#5c2d91"/><path d="M476,462.49a168.29,168.29,0,0,1-238-238Z" transform="translate(-188.67 -175.2)" fill="#6d429c"/><path d="M231.61,349.46c0-5.08,3.43-8.65,8.24-8.65s8.1,3.57,8.1,8.65-3.16,8.65-8.24,8.65C234.9,358.11,231.61,354.4,231.61,349.46Z" transform="translate(-188.67 -175.2)" fill="#fff"/><path d="M263.33,356.6V264.05h13L306,310.87a262.89,262.89,0,0,1,16.62,30.07l.27-.13c-1.1-12.36-1.37-23.62-1.37-38V264.05h11.26V356.6H320.72l-29.38-47a292.44,292.44,0,0,1-17.3-30.9l-.42.14c.69,11.67,1,22.79,1,38.17V356.6Z" transform="translate(-188.67 -175.2)" fill="#fff"/><path d="M401.6,313.21h-36v33.36h40.1v10h-52V264.05h50v10h-38v29.25h36Z" transform="translate(-188.67 -175.2)" fill="#fff"/><path d="M441,274.21H412.86V264.05h68.52v10.16H453.09V356.6H441Z" transform="translate(-188.67 -175.2)" fill="#fff"/><path d="M323.92,431c-2.36,1.17-7.08,2.35-13.12,2.35-14,0-24.54-8.84-24.54-25.12,0-15.55,10.54-26.09,25.94-26.09,6.19,0,10.09,1.33,11.79,2.21l-1.55,5.23a23.46,23.46,0,0,0-10-2.06c-11.64,0-19.38,7.44-19.38,20.49,0,12.15,7,20,19.09,20a25.71,25.71,0,0,0,10.46-2.06Z" transform="translate(-188.67 -175.2)" fill="#fff"/><path d="M363.19,414.45c0,13.19-9.14,18.94-17.76,18.94-9.65,0-17.09-7.08-17.09-18.35,0-11.94,7.81-18.94,17.68-18.94C356.26,396.1,363.19,403.54,363.19,414.45Zm-28.29.37c0,7.81,4.49,13.7,10.83,13.7,6.19,0,10.83-5.82,10.83-13.85,0-6-3-13.7-10.69-13.7S334.9,408,334.9,414.82Z" transform="translate(-188.67 -175.2)" fill="#fff"/><path d="M371.37,408c0-4.2-.07-7.81-.29-11.13h5.67l.22,7h.29c1.63-4.79,5.53-7.81,9.88-7.81a7.31,7.31,0,0,1,1.84.22v6.12a9.6,9.6,0,0,0-2.21-.22c-4.57,0-7.81,3.46-8.69,8.33a17.83,17.83,0,0,0-.3,3v19h-6.41Z" transform="translate(-188.67 -175.2)" fill="#fff"/><path d="M398.34,415.92c.15,8.77,5.75,12.38,12.23,12.38a23.46,23.46,0,0,0,9.87-1.84l1.11,4.64a28.89,28.89,0,0,1-11.86,2.21c-11,0-17.54-7.22-17.54-18s6.34-19.23,16.73-19.23c11.64,0,14.73,10.25,14.73,16.8a23.18,23.18,0,0,1-.22,3Zm19-4.64c.07-4.12-1.69-10.53-9-10.53-6.56,0-9.43,6-9.95,10.53Z" transform="translate(-188.67 -175.2)" fill="#fff"/></svg>