<svg
  id="Layer_1"
  data-name="Layer 1"
  xmlns="http://www.w3.org/2000/svg"
  viewBox="0 0 159.23 134.89"
>
  <title></title>
  <path
    d="M86.22,179.22c-1.69-9-5.64-25.41-15.45-50.25H81.85a70.32,70.32,0,0,1,5.23-25.15s2.52,6.15,11.46,6.71c0,0-5-22.91-21.23-22.91,0,0,29.62-14.53,67.06,6.7,0,0-1.12-7.46-6.71-11.55,0,0,17.33,4.28,25.15,11.55,0,0,10.62-6.7,18.44-3.35,0,0-5,5.78,3.36,9.31,0,0,25.14,2.43,34.64,12.49s14.13,27.28,7.92,65.26c0,0-1,9.06-5.28,16.14-3.19-28.31-22.19-54.58-22.19-54.58s-7.27-12.29-22.92-4.47c-5.65,2.83-17.36,5.59-24.89,5s-32.81-3.74-40.77,2.23c-10.73,8.05-16.11,27.2-20.29,51.79-.2,0-1.77-4.72-2.89-8.19A54.43,54.43,0,0,1,86.22,179.22Z"
    transform="translate(-70.77 -82.77)"
    fill="#fff"
  />
  <path
    d="M184.93,176.33a20.67,20.67,0,0,0-19.27,13.2H149.09a20.66,20.66,0,1,0,1.4,7.47c0-.58,0-1.16-.08-1.73h13.93c-.05.57-.08,1.15-.08,1.73a20.67,20.67,0,1,0,20.67-20.67Zm-55.11,35.59A14.93,14.93,0,1,1,144.75,197,14.94,14.94,0,0,1,129.82,211.92Zm55.11,0A14.93,14.93,0,1,1,199.85,197,14.94,14.94,0,0,1,184.93,211.92Z"
    transform="translate(-70.77 -82.77)"
    fill="currentColor"
  />
</svg>
