<svg
        id="Layer_1"
        data-name="Layer 1"
        xmlns="http://www.w3.org/2000/svg"
        xmlns:xlink="http://www.w3.org/1999/xlink"
        viewBox="0 0 700 480"
      >
        <defs>
          <linearGradient
            id="linear-gradient"
            x1="919.83"
            y1="617.66"
            x2="931.85"
            y2="891.69"
            gradientTransform="translate(1231.41 -631.95) rotate(90)"
            gradientUnits="userSpaceOnUse"
          >
            <stop offset="0" stop-color="#f6cb08" />
            <stop offset="1" stop-color="#feb802" />
          </linearGradient>
          <linearGradient
            id="linear-gradient-2"
            x1="917.89"
            y1="617.74"
            x2="929.91"
            y2="891.77"
            xlink:href="#linear-gradient"
          />
          <linearGradient
            id="linear-gradient-3"
            x1="915.96"
            y1="617.83"
            x2="927.98"
            y2="891.86"
            xlink:href="#linear-gradient"
          />
          <linearGradient
            id="linear-gradient-4"
            x1="914.02"
            y1="617.91"
            x2="926.04"
            y2="891.94"
            xlink:href="#linear-gradient"
          />
          <linearGradient
            id="linear-gradient-5"
            x1="912.07"
            y1="618"
            x2="924.08"
            y2="892.03"
            xlink:href="#linear-gradient"
          />
          <linearGradient
            id="linear-gradient-6"
            x1="910.13"
            y1="618.08"
            x2="922.15"
            y2="892.11"
            xlink:href="#linear-gradient"
          />
          <linearGradient
            id="linear-gradient-7"
            x1="908.2"
            y1="618.17"
            x2="920.21"
            y2="892.2"
            xlink:href="#linear-gradient"
          />
          <linearGradient
            id="linear-gradient-8"
            x1="906.26"
            y1="618.25"
            x2="918.28"
            y2="892.28"
            xlink:href="#linear-gradient"
          />
        </defs>
        <title>shapes</title>
        <g id="dotted-square" fill="#e1e2e2">
          <path
            d="M832.17,376.58a7.3,7.3,0,1,1,3.62,9.67A7.3,7.3,0,0,1,832.17,376.58Z"
            transform="translate(-346.54 -160.1)"
          />
          <path
            d="M806.08,364.7a7.3,7.3,0,1,1,3.62,9.67A7.3,7.3,0,0,1,806.08,364.7Z"
            transform="translate(-346.54 -160.1)"
          />
          <path
            d="M780,352.82a7.3,7.3,0,1,1,3.61,9.66A7.29,7.29,0,0,1,780,352.82Z"
            transform="translate(-346.54 -160.1)"
          />
          <path
            d="M753.91,340.94a7.3,7.3,0,1,1,3.62,9.66A7.29,7.29,0,0,1,753.91,340.94Z"
            transform="translate(-346.54 -160.1)"
          />
          <path
            d="M727.82,329.05a7.3,7.3,0,1,1,3.62,9.67A7.31,7.31,0,0,1,727.82,329.05Z"
            transform="translate(-346.54 -160.1)"
          />
          <path
            d="M701.74,317.17a7.3,7.3,0,1,1,3.61,9.67A7.29,7.29,0,0,1,701.74,317.17Z"
            transform="translate(-346.54 -160.1)"
          />
          <path
            d="M675.65,305.29a7.3,7.3,0,1,1,3.61,9.66A7.29,7.29,0,0,1,675.65,305.29Z"
            transform="translate(-346.54 -160.1)"
          />
          <path
            d="M649.56,293.41a7.3,7.3,0,1,1,3.62,9.66A7.3,7.3,0,0,1,649.56,293.41Z"
            transform="translate(-346.54 -160.1)"
          />
          <path
            d="M623.48,281.52a7.3,7.3,0,1,1,3.61,9.67A7.29,7.29,0,0,1,623.48,281.52Z"
            transform="translate(-346.54 -160.1)"
          />
          <path
            d="M597.39,269.64a7.3,7.3,0,1,1,3.61,9.67A7.3,7.3,0,0,1,597.39,269.64Z"
            transform="translate(-346.54 -160.1)"
          />
          <path
            d="M571.3,257.76a7.3,7.3,0,1,1,3.62,9.67A7.3,7.3,0,0,1,571.3,257.76Z"
            transform="translate(-346.54 -160.1)"
          />
          <path
            d="M845.33,347.68a7.3,7.3,0,1,1,3.62,9.67A7.3,7.3,0,0,1,845.33,347.68Z"
            transform="translate(-346.54 -160.1)"
          />
          <path
            d="M819.25,335.8a7.3,7.3,0,1,1,3.61,9.66A7.29,7.29,0,0,1,819.25,335.8Z"
            transform="translate(-346.54 -160.1)"
          />
          <path
            d="M793.16,323.92a7.3,7.3,0,1,1,3.62,9.66A7.3,7.3,0,0,1,793.16,323.92Z"
            transform="translate(-346.54 -160.1)"
          />
          <path
            d="M767.07,312a7.3,7.3,0,1,1,3.62,9.67A7.31,7.31,0,0,1,767.07,312Z"
            transform="translate(-346.54 -160.1)"
          />
          <path
            d="M741,300.15a7.3,7.3,0,1,1,3.61,9.67A7.29,7.29,0,0,1,741,300.15Z"
            transform="translate(-346.54 -160.1)"
          />
          <path
            d="M714.9,288.27a7.3,7.3,0,1,1,3.62,9.66A7.3,7.3,0,0,1,714.9,288.27Z"
            transform="translate(-346.54 -160.1)"
          />
          <path
            d="M688.81,276.39a7.3,7.3,0,1,1,3.62,9.66A7.3,7.3,0,0,1,688.81,276.39Z"
            transform="translate(-346.54 -160.1)"
          />
          <path
            d="M662.73,264.5a7.3,7.3,0,1,1,3.61,9.67A7.29,7.29,0,0,1,662.73,264.5Z"
            transform="translate(-346.54 -160.1)"
          />
          <path
            d="M636.64,252.62a7.3,7.3,0,1,1,3.62,9.67A7.3,7.3,0,0,1,636.64,252.62Z"
            transform="translate(-346.54 -160.1)"
          />
          <path
            d="M610.55,240.74a7.3,7.3,0,1,1,3.62,9.67A7.3,7.3,0,0,1,610.55,240.74Z"
            transform="translate(-346.54 -160.1)"
          />
          <path
            d="M584.47,228.86a7.3,7.3,0,1,1,3.61,9.66A7.29,7.29,0,0,1,584.47,228.86Z"
            transform="translate(-346.54 -160.1)"
          />
          <path
            d="M858.5,318.78a7.3,7.3,0,1,1,3.61,9.66A7.29,7.29,0,0,1,858.5,318.78Z"
            transform="translate(-346.54 -160.1)"
          />
          <path
            d="M832.41,306.9a7.3,7.3,0,1,1,3.62,9.66A7.3,7.3,0,0,1,832.41,306.9Z"
            transform="translate(-346.54 -160.1)"
          />
          <path
            d="M806.33,295a7.3,7.3,0,1,1,3.61,9.67A7.29,7.29,0,0,1,806.33,295Z"
            transform="translate(-346.54 -160.1)"
          />
          <path
            d="M780.24,283.13a7.3,7.3,0,1,1,3.61,9.67A7.3,7.3,0,0,1,780.24,283.13Z"
            transform="translate(-346.54 -160.1)"
          />
          <path
            d="M754.15,271.25a7.3,7.3,0,1,1,3.62,9.67A7.3,7.3,0,0,1,754.15,271.25Z"
            transform="translate(-346.54 -160.1)"
          />
          <path
            d="M728.06,259.37a7.3,7.3,0,1,1,3.62,9.66A7.3,7.3,0,0,1,728.06,259.37Z"
            transform="translate(-346.54 -160.1)"
          />
          <path
            d="M702,247.49a7.29,7.29,0,1,1,3.61,9.66A7.29,7.29,0,0,1,702,247.49Z"
            transform="translate(-346.54 -160.1)"
          />
          <path
            d="M675.89,235.6a7.3,7.3,0,1,1,3.62,9.67A7.31,7.31,0,0,1,675.89,235.6Z"
            transform="translate(-346.54 -160.1)"
          />
          <path
            d="M649.8,223.72a7.3,7.3,0,1,1,3.62,9.67A7.3,7.3,0,0,1,649.8,223.72Z"
            transform="translate(-346.54 -160.1)"
          />
          <path
            d="M623.72,211.84a7.3,7.3,0,1,1,3.61,9.66A7.29,7.29,0,0,1,623.72,211.84Z"
            transform="translate(-346.54 -160.1)"
          />
          <path
            d="M597.63,200a7.3,7.3,0,1,1,3.62,9.66A7.3,7.3,0,0,1,597.63,200Z"
            transform="translate(-346.54 -160.1)"
          />
          <path
            d="M793.62,461.22a7.3,7.3,0,1,1,3.61,9.67A7.29,7.29,0,0,1,793.62,461.22Z"
            transform="translate(-346.54 -160.1)"
          />
          <path
            d="M767.53,449.34a7.3,7.3,0,1,1,3.62,9.67A7.3,7.3,0,0,1,767.53,449.34Z"
            transform="translate(-346.54 -160.1)"
          />
          <path
            d="M741.44,437.46a7.3,7.3,0,1,1,3.62,9.67A7.3,7.3,0,0,1,741.44,437.46Z"
            transform="translate(-346.54 -160.1)"
          />
          <path
            d="M715.36,425.58a7.3,7.3,0,1,1,3.61,9.66A7.29,7.29,0,0,1,715.36,425.58Z"
            transform="translate(-346.54 -160.1)"
          />
          <path
            d="M689.27,413.7a7.29,7.29,0,1,1,3.61,9.66A7.29,7.29,0,0,1,689.27,413.7Z"
            transform="translate(-346.54 -160.1)"
          />
          <path
            d="M663.18,401.81a7.3,7.3,0,1,1,3.62,9.67A7.31,7.31,0,0,1,663.18,401.81Z"
            transform="translate(-346.54 -160.1)"
          />
          <path
            d="M637.1,389.93a7.3,7.3,0,1,1,3.61,9.67A7.28,7.28,0,0,1,637.1,389.93Z"
            transform="translate(-346.54 -160.1)"
          />
          <path
            d="M611,378.05a7.3,7.3,0,1,1,3.61,9.66A7.29,7.29,0,0,1,611,378.05Z"
            transform="translate(-346.54 -160.1)"
          />
          <path
            d="M584.92,366.17a7.3,7.3,0,1,1,3.62,9.66A7.3,7.3,0,0,1,584.92,366.17Z"
            transform="translate(-346.54 -160.1)"
          />
          <path
            d="M558.84,354.28a7.3,7.3,0,1,1,3.61,9.67A7.29,7.29,0,0,1,558.84,354.28Z"
            transform="translate(-346.54 -160.1)"
          />
          <path
            d="M532.75,342.4a7.3,7.3,0,1,1,3.61,9.67A7.29,7.29,0,0,1,532.75,342.4Z"
            transform="translate(-346.54 -160.1)"
          />
          <path
            d="M806.78,432.32A7.3,7.3,0,1,1,810.4,442,7.31,7.31,0,0,1,806.78,432.32Z"
            transform="translate(-346.54 -160.1)"
          />
          <path
            d="M780.69,420.44a7.3,7.3,0,1,1,3.62,9.67A7.29,7.29,0,0,1,780.69,420.44Z"
            transform="translate(-346.54 -160.1)"
          />
          <path
            d="M754.61,408.56a7.3,7.3,0,1,1,3.61,9.66A7.29,7.29,0,0,1,754.61,408.56Z"
            transform="translate(-346.54 -160.1)"
          />
          <path
            d="M728.52,396.68a7.3,7.3,0,1,1,3.62,9.66A7.3,7.3,0,0,1,728.52,396.68Z"
            transform="translate(-346.54 -160.1)"
          />
          <path
            d="M702.43,384.79a7.3,7.3,0,1,1,3.62,9.67A7.31,7.31,0,0,1,702.43,384.79Z"
            transform="translate(-346.54 -160.1)"
          />
          <path
            d="M676.35,372.91a7.3,7.3,0,1,1,3.61,9.67A7.29,7.29,0,0,1,676.35,372.91Z"
            transform="translate(-346.54 -160.1)"
          />
          <path
            d="M650.26,361a7.3,7.3,0,1,1,3.62,9.66A7.29,7.29,0,0,1,650.26,361Z"
            transform="translate(-346.54 -160.1)"
          />
          <path
            d="M624.17,349.15a7.3,7.3,0,1,1,3.62,9.66A7.3,7.3,0,0,1,624.17,349.15Z"
            transform="translate(-346.54 -160.1)"
          />
          <path
            d="M598.09,337.26a7.3,7.3,0,1,1,3.61,9.67A7.29,7.29,0,0,1,598.09,337.26Z"
            transform="translate(-346.54 -160.1)"
          />
          <path
            d="M572,325.38a7.3,7.3,0,1,1,3.62,9.67A7.29,7.29,0,0,1,572,325.38Z"
            transform="translate(-346.54 -160.1)"
          />
          <path
            d="M545.91,313.5a7.3,7.3,0,1,1,3.62,9.66A7.3,7.3,0,0,1,545.91,313.5Z"
            transform="translate(-346.54 -160.1)"
          />
          <path
            d="M820,403.42a7.3,7.3,0,1,1,3.61,9.67A7.29,7.29,0,0,1,820,403.42Z"
            transform="translate(-346.54 -160.1)"
          />
          <path
            d="M793.86,391.54a7.3,7.3,0,1,1,3.61,9.66A7.29,7.29,0,0,1,793.86,391.54Z"
            transform="translate(-346.54 -160.1)"
          />
          <path
            d="M767.77,379.66a7.3,7.3,0,1,1,3.62,9.66A7.3,7.3,0,0,1,767.77,379.66Z"
            transform="translate(-346.54 -160.1)"
          />
          <path
            d="M741.69,367.77a7.3,7.3,0,1,1,3.61,9.67A7.29,7.29,0,0,1,741.69,367.77Z"
            transform="translate(-346.54 -160.1)"
          />
          <path
            d="M715.6,355.89a7.3,7.3,0,1,1,3.61,9.67A7.29,7.29,0,0,1,715.6,355.89Z"
            transform="translate(-346.54 -160.1)"
          />
          <path
            d="M689.51,344a7.3,7.3,0,1,1,3.62,9.66A7.3,7.3,0,0,1,689.51,344Z"
            transform="translate(-346.54 -160.1)"
          />
          <path
            d="M663.42,332.13a7.3,7.3,0,1,1,3.62,9.66A7.3,7.3,0,0,1,663.42,332.13Z"
            transform="translate(-346.54 -160.1)"
          />
          <path
            d="M637.34,320.24a7.3,7.3,0,1,1,3.61,9.67A7.3,7.3,0,0,1,637.34,320.24Z"
            transform="translate(-346.54 -160.1)"
          />
          <path
            d="M611.25,308.36a7.3,7.3,0,1,1,3.62,9.67A7.31,7.31,0,0,1,611.25,308.36Z"
            transform="translate(-346.54 -160.1)"
          />
          <path
            d="M585.16,296.48a7.3,7.3,0,1,1,3.62,9.67A7.3,7.3,0,0,1,585.16,296.48Z"
            transform="translate(-346.54 -160.1)"
          />
          <path
            d="M559.08,284.6a7.3,7.3,0,1,1,3.61,9.66A7.29,7.29,0,0,1,559.08,284.6Z"
            transform="translate(-346.54 -160.1)"
          />
          <path
            d="M755.06,545.87a7.3,7.3,0,1,1,3.62,9.66A7.3,7.3,0,0,1,755.06,545.87Z"
            transform="translate(-346.54 -160.1)"
          />
          <path
            d="M729,534a7.3,7.3,0,1,1,3.61,9.67A7.29,7.29,0,0,1,729,534Z"
            transform="translate(-346.54 -160.1)"
          />
          <path
            d="M702.89,522.1a7.3,7.3,0,1,1,3.61,9.67A7.29,7.29,0,0,1,702.89,522.1Z"
            transform="translate(-346.54 -160.1)"
          />
          <path
            d="M676.8,510.22a7.3,7.3,0,1,1,3.62,9.66A7.3,7.3,0,0,1,676.8,510.22Z"
            transform="translate(-346.54 -160.1)"
          />
          <path
            d="M650.72,498.34a7.3,7.3,0,1,1,3.61,9.66A7.29,7.29,0,0,1,650.72,498.34Z"
            transform="translate(-346.54 -160.1)"
          />
          <path
            d="M624.63,486.45a7.3,7.3,0,1,1,3.61,9.67A7.3,7.3,0,0,1,624.63,486.45Z"
            transform="translate(-346.54 -160.1)"
          />
          <path
            d="M598.54,474.57a7.3,7.3,0,1,1,3.62,9.67A7.31,7.31,0,0,1,598.54,474.57Z"
            transform="translate(-346.54 -160.1)"
          />
          <path
            d="M572.45,462.69a7.3,7.3,0,1,1,3.62,9.67A7.3,7.3,0,0,1,572.45,462.69Z"
            transform="translate(-346.54 -160.1)"
          />
          <path
            d="M546.37,450.81a7.3,7.3,0,1,1,3.61,9.66A7.29,7.29,0,0,1,546.37,450.81Z"
            transform="translate(-346.54 -160.1)"
          />
          <path
            d="M520.28,438.93a7.29,7.29,0,1,1,3.62,9.66A7.3,7.3,0,0,1,520.28,438.93Z"
            transform="translate(-346.54 -160.1)"
          />
          <path
            d="M494.19,427a7.3,7.3,0,1,1,3.62,9.67A7.31,7.31,0,0,1,494.19,427Z"
            transform="translate(-346.54 -160.1)"
          />
          <path
            d="M768.23,517a7.3,7.3,0,1,1,3.61,9.67A7.29,7.29,0,0,1,768.23,517Z"
            transform="translate(-346.54 -160.1)"
          />
          <path
            d="M742.14,505.08a7.3,7.3,0,1,1,3.62,9.67A7.31,7.31,0,0,1,742.14,505.08Z"
            transform="translate(-346.54 -160.1)"
          />
          <path
            d="M716.05,493.2a7.3,7.3,0,1,1,3.62,9.66A7.3,7.3,0,0,1,716.05,493.2Z"
            transform="translate(-346.54 -160.1)"
          />
          <path
            d="M690,481.32a7.3,7.3,0,1,1,3.61,9.66A7.29,7.29,0,0,1,690,481.32Z"
            transform="translate(-346.54 -160.1)"
          />
          <path
            d="M663.88,469.44a7.29,7.29,0,1,1,3.62,9.66A7.29,7.29,0,0,1,663.88,469.44Z"
            transform="translate(-346.54 -160.1)"
          />
          <path
            d="M637.79,457.55a7.3,7.3,0,1,1,3.62,9.67A7.31,7.31,0,0,1,637.79,457.55Z"
            transform="translate(-346.54 -160.1)"
          />
          <path
            d="M611.71,445.67a7.3,7.3,0,1,1,3.61,9.67A7.29,7.29,0,0,1,611.71,445.67Z"
            transform="translate(-346.54 -160.1)"
          />
          <path
            d="M585.62,433.79a7.3,7.3,0,1,1,3.62,9.66A7.29,7.29,0,0,1,585.62,433.79Z"
            transform="translate(-346.54 -160.1)"
          />
          <path
            d="M559.53,421.91a7.29,7.29,0,1,1,3.62,9.66A7.3,7.3,0,0,1,559.53,421.91Z"
            transform="translate(-346.54 -160.1)"
          />
          <path
            d="M533.45,410a7.3,7.3,0,1,1,3.61,9.67A7.29,7.29,0,0,1,533.45,410Z"
            transform="translate(-346.54 -160.1)"
          />
          <path
            d="M507.36,398.14a7.3,7.3,0,1,1,3.61,9.67A7.29,7.29,0,0,1,507.36,398.14Z"
            transform="translate(-346.54 -160.1)"
          />
          <path
            d="M781.39,488.06a7.3,7.3,0,1,1,3.62,9.67A7.31,7.31,0,0,1,781.39,488.06Z"
            transform="translate(-346.54 -160.1)"
          />
          <path
            d="M755.31,476.18a7.3,7.3,0,1,1,3.61,9.67A7.29,7.29,0,0,1,755.31,476.18Z"
            transform="translate(-346.54 -160.1)"
          />
          <path
            d="M729.22,464.3a7.3,7.3,0,1,1,3.61,9.66A7.29,7.29,0,0,1,729.22,464.3Z"
            transform="translate(-346.54 -160.1)"
          />
          <path
            d="M703.13,452.42a7.29,7.29,0,1,1,3.62,9.66A7.3,7.3,0,0,1,703.13,452.42Z"
            transform="translate(-346.54 -160.1)"
          />
          <path
            d="M677,440.53a7.3,7.3,0,1,1,3.62,9.67A7.31,7.31,0,0,1,677,440.53Z"
            transform="translate(-346.54 -160.1)"
          />
          <path
            d="M651,428.65a7.3,7.3,0,1,1,3.61,9.67A7.28,7.28,0,0,1,651,428.65Z"
            transform="translate(-346.54 -160.1)"
          />
          <path
            d="M624.87,416.77a7.3,7.3,0,1,1,3.62,9.66A7.3,7.3,0,0,1,624.87,416.77Z"
            transform="translate(-346.54 -160.1)"
          />
          <path
            d="M598.78,404.89a7.3,7.3,0,1,1,3.62,9.66A7.3,7.3,0,0,1,598.78,404.89Z"
            transform="translate(-346.54 -160.1)"
          />
          <path
            d="M572.7,393a7.3,7.3,0,1,1,3.61,9.67A7.29,7.29,0,0,1,572.7,393Z"
            transform="translate(-346.54 -160.1)"
          />
          <path
            d="M546.61,381.12a7.3,7.3,0,1,1,3.62,9.67A7.3,7.3,0,0,1,546.61,381.12Z"
            transform="translate(-346.54 -160.1)"
          />
          <path
            d="M520.52,369.24a7.3,7.3,0,1,1,3.62,9.66A7.3,7.3,0,0,1,520.52,369.24Z"
            transform="translate(-346.54 -160.1)"
          />
        </g>
        <g id="angle-brace" fill="#e1e2e2">
          <polygon
            points="602.53 314.05 576.98 288.5 603.63 261.86 621.71 261.86 595.06 288.5 620.61 314.05 602.53 314.05"
          />
          <polygon
            points="558.32 314.05 532.77 288.5 559.42 261.86 577.5 261.86 550.85 288.5 576.4 314.05 558.32 314.05"
          />
          <polygon
            points="514.12 314.05 488.56 288.5 515.21 261.86 533.29 261.86 506.64 288.5 532.19 314.05 514.12 314.05"
          />
          <polygon
            points="469.91 314.05 444.36 288.5 471 261.86 489.08 261.86 462.43 288.5 487.98 314.05 469.91 314.05"
          />
          <polygon
            points="425.18 314.05 399.63 288.5 426.28 261.86 444.36 261.86 417.71 288.5 443.26 314.05 425.18 314.05"
          />
          <polygon
            points="380.98 314.05 355.43 288.5 382.07 261.86 400.15 261.86 373.5 288.5 399.05 314.05 380.98 314.05"
          />
          <polygon
            points="336.77 314.05 311.22 288.5 337.86 261.86 355.94 261.86 329.29 288.5 354.84 314.05 336.77 314.05"
          />
          <polygon
            points="292.56 314.05 267.01 288.5 293.65 261.86 311.73 261.86 285.08 288.5 310.63 314.05 292.56 314.05"
          />
        </g>
        <g id="cirlce-line" stroke="#fb8122">
          <line
            x1="180.98"
            y1="124.43"
            x2="164.07"
            y2="107.52"
            fill="none"
            stroke-linecap="round"
            stroke-linejoin="round"
            stroke-width="4"
          />
          <line
            x1="201.64"
            y1="173.37"
            x2="115.13"
            y2="86.86"
            fill="none"
            stroke-linecap="round"
            stroke-linejoin="round"
            stroke-width="4"
          />
          <line
            x1="201.43"
            y1="201.45"
            x2="87.04"
            y2="87.06"
            fill="none"
            stroke-linecap="round"
            stroke-linejoin="round"
            stroke-width="4"
          />
          <line
            x1="195.46"
            y1="223.76"
            x2="64.73"
            y2="93.03"
            fill="none"
            stroke-linecap="round"
            stroke-linejoin="round"
            stroke-width="4"
          />
          <line
            x1="185.75"
            y1="242.33"
            x2="46.15"
            y2="102.74"
            fill="none"
            stroke-linecap="round"
            stroke-linejoin="round"
            stroke-width="4"
          />
          <line
            x1="173.02"
            y1="257.89"
            x2="30.6"
            y2="115.47"
            fill="none"
            stroke-linecap="round"
            stroke-linejoin="round"
            stroke-width="4"
          />
          <line
            x1="157.47"
            y1="270.62"
            x2="17.87"
            y2="131.02"
            fill="none"
            stroke-linecap="round"
            stroke-linejoin="round"
            stroke-width="4"
          />
          <line
            x1="138.88"
            y1="280.32"
            x2="8.17"
            y2="149.6"
            fill="none"
            stroke-linecap="round"
            stroke-linejoin="round"
            stroke-width="4"
          />
          <line
            x1="116.57"
            y1="286.29"
            x2="2.2"
            y2="171.92"
            fill="none"
            stroke-linecap="round"
            stroke-linejoin="round"
            stroke-width="4"
          />
          <line
            x1="88.49"
            y1="286.5"
            x2="2"
            y2="200"
            fill="none"
            stroke-linecap="round"
            stroke-linejoin="round"
            stroke-width="4"
          />
          <line
            x1="39.56"
            y1="265.85"
            x2="22.65"
            y2="248.93"
            fill="none"
            stroke-linecap="round"
            stroke-linejoin="round"
            stroke-width="4"
          />
        </g>
        <g id="geo-wave" fill="#e1e2e2">
          <polygon
            points="348 370.19 312.73 352.64 277.05 370.4 241.37 352.64 205.69 370.4 170.01 352.64 134.33 370.4 101.98 354.3 101.98 359.26 134.33 375.36 170.01 357.6 205.69 375.36 241.37 357.6 277.05 375.36 312.73 357.6 348 375.15 348 370.19"
          />
          <polygon
            points="348 390.38 312.73 372.82 277.05 390.58 241.37 372.82 205.69 390.58 170.01 372.82 134.33 390.58 101.98 374.48 101.98 379.44 134.33 395.54 170.01 377.78 205.69 395.54 241.37 377.78 277.05 395.54 312.73 377.78 348 395.34 348 390.38"
          />
          <polygon
            points="348 410.56 312.73 393 277.05 410.76 241.37 393 205.69 410.76 170.01 393 134.33 410.76 101.98 394.66 101.98 399.62 134.33 415.72 170.01 397.96 205.69 415.72 241.37 397.96 277.05 415.72 312.73 397.96 348 415.52 348 410.56"
          />
          <polygon
            points="348 430.74 312.73 413.19 277.05 430.94 241.37 413.19 205.69 430.94 170.01 413.19 134.33 430.94 101.98 414.84 101.98 419.8 134.33 435.9 170.01 418.14 205.69 435.9 241.37 418.14 277.05 435.9 312.73 418.14 348 435.7 348 430.74"
          />
        </g>
        <circle
          id="dot-circle"
          cx="400"
          cy="150"
          r="140"
          fill="none"
          stroke="#fb8122"
          stroke-miterlimit="10"
          stroke-width="4"
          stroke-dasharray="12.04 12.04"
        />
        <g id="shape-moon" stroke="#fb8122">
          <path
            d="M729.08,592.53l21-13.48a56.86,56.86,0,1,0,95.76-61.33L867,504.24a81.86,81.86,0,0,1-137.87,88.29Z"
            transform="translate(-346.54 -160.1)"
            fill="#e1e2e2"
          />
          <polygon
            id="star"
            fill="#fb8122"
            points="440.77 386.89 449.89 377.77 459.01 386.89 473.61 372.3 464.48 363.18 473.61 354.05 459.01 339.46 449.89 348.58 440.77 339.46 426.17 354.05 435.3 363.18 426.17 372.3 440.77 386.89"
          />
        </g>
      </svg>