<svg id="Layer_1" data-name="Layer 1" xmlns="http://www.w3.org/2000/svg" viewBox="0 0 242 243"><title>avatar</title><circle cx="121" cy="121" r="121" fill="#e1e2e2"/><path d="M679.19,302.49a54.46,54.46,0,0,0-2-8.06c-.6,0-1.22,0-1.89-.08-23-1.7-86.16-16.49-86.16-16.49-3.83,6.79-13.82,15.43-21.62,21-.28,1.22-.56,2.43-.75,3.67a51.59,51.59,0,0,0,1.65,23.65c7,22.64,28.76,39.22,54.55,39.22s47.57-16.59,54.53-39.23a53.67,53.67,0,0,0,2-9.6,54.41,54.41,0,0,0,.34-5.87A52.36,52.36,0,0,0,679.19,302.49Zm-3.55,1.36-5.27,18.83a2.24,2.24,0,0,1-2.17,1.65H636.94a2.26,2.26,0,0,1-2.22-1.82l-2.17-10.83a6.21,6.21,0,0,0-2.87-2,18.47,18.47,0,0,0-6.6-1.1,18.94,18.94,0,0,0-6.71,1.12,6.29,6.29,0,0,0-2.93,2l-2.16,10.8a2.27,2.27,0,0,1-2.22,1.82H577.8a2.25,2.25,0,0,1-2.17-1.65l-5.28-18.83a2.26,2.26,0,0,1,2.19-2.87h40.29a2.26,2.26,0,0,1,2.22,2.7l-.34,1.68a24,24,0,0,1,8.37-1.43,23.28,23.28,0,0,1,8.2,1.4l-.33-1.65a2.26,2.26,0,0,1,2.22-2.7h40.3a2.26,2.26,0,0,1,1.8.89A2.29,2.29,0,0,1,675.64,303.85Z" transform="translate(-502 -206)" fill="#e1e2e2"/><path d="M610.07,305.5H575.51l4,14.31h27.7l1.85-9.23-.25-.1a7.84,7.84,0,0,1,.41-.69Z" transform="translate(-502 -206)" fill="none"/><path d="M638.79,319.81h27.69l4-14.31H635.93l.85,4.26a6.51,6.51,0,0,1,.41.73l-.25.09Z" transform="translate(-502 -206)" fill="none"/><path d="M658.82,366.23h-3.13a64.69,64.69,0,0,0,31.36-38.72,157.6,157.6,0,0,0,4.43-36,59.73,59.73,0,0,0,.43-6.86l0-.65a43.29,43.29,0,0,0-.27-5.22,61.12,61.12,0,0,0-3.46-15.34,61.94,61.94,0,0,0-56.56-40.54l-.75-.59a2.4,2.4,0,0,0-1.83-.84,3.76,3.76,0,0,0-2.55,1.36h-.21c-3.61-3.62-6.33-5.86-8.67-5.86h0c-2.22.17-12.65,3.87-16,6.37-.75.55-1.57,1.27-2.46,2a61.82,61.82,0,0,0-44.28,59.26c0,.43,0,.85,0,1.27a49.31,49.31,0,0,0,.2,5.59,155,155,0,0,0,3.83,36,64.69,64.69,0,0,0,31.36,38.72h-3.13c-26.37,0-48.65,17.23-55.77,40.83a121,121,0,0,0,183.18,0C707.47,383.46,685.19,366.23,658.82,366.23Zm-90.36-40.09a50.28,50.28,0,0,1-1.65-23.65c.19-1.24.47-2.45.75-3.67,7.8-5.53,17.79-14.17,21.62-21,0,0,63.16,14.79,86.16,16.49.67,0,1.29.07,1.89.08a54.46,54.46,0,0,1,2,8.06,52.36,52.36,0,0,1,.71,8.17,54.41,54.41,0,0,1-.34,5.87,53.67,53.67,0,0,1-2,9.6c-7,22.64-28.76,39.23-54.53,39.23S575.43,348.78,568.46,326.14ZM623,398.73a30.88,30.88,0,0,1-30.88-30.88c0-.25,0-.42,0-.64,1.25.63,2.51,1.25,3.8,1.81a68.69,68.69,0,0,0,54.1,0c1.29-.56,2.55-1.18,3.8-1.81,0,.22,0,.39,0,.64A30.88,30.88,0,0,1,623,398.73Z" transform="translate(-502 -206)" fill="#12232e"/><path d="M596,369a27.07,27.07,0,0,0,54.1,0,68.69,68.69,0,0,1-54.1,0Z" transform="translate(-502 -206)" fill="#e1e2e2"/><path d="M642.17,387A27.07,27.07,0,0,1,596,369c-1.29-.56-2.55-1.18-3.8-1.81,0,.22,0,.39,0,.64a30.88,30.88,0,0,0,61.76,0c0-.25,0-.42,0-.64-1.25.63-2.51,1.25-3.8,1.81A27,27,0,0,1,642.17,387Z" transform="translate(-502 -206)" fill="#ff8109"/><path d="M675.27,301.87a2.26,2.26,0,0,0-1.8-.89h-40.3a2.26,2.26,0,0,0-2.22,2.7l.33,1.65a23.28,23.28,0,0,0-8.2-1.4,24,24,0,0,0-8.37,1.43l.34-1.68a2.26,2.26,0,0,0-2.22-2.7H572.54a2.26,2.26,0,0,0-2.19,2.87l5.28,18.83a2.25,2.25,0,0,0,2.17,1.65h31.26a2.27,2.27,0,0,0,2.22-1.82l2.16-10.8a6.29,6.29,0,0,1,2.93-2,18.94,18.94,0,0,1,6.71-1.12,18.47,18.47,0,0,1,6.6,1.1,6.21,6.21,0,0,1,2.87,2l2.17,10.83a2.26,2.26,0,0,0,2.22,1.82H668.2a2.24,2.24,0,0,0,2.17-1.65l5.27-18.83A2.29,2.29,0,0,0,675.27,301.87Zm-66,7.92a7.84,7.84,0,0,0-.41.69l.25.1-1.85,9.23h-27.7l-4-14.31h34.56Zm57.26,10H638.79l-1.85-9.23.25-.09a6.51,6.51,0,0,0-.41-.73l-.85-4.26h34.56Z" transform="translate(-502 -206)" fill="#ff8109"/><path d="M744,328A121,121,0,1,1,623,207,121,121,0,0,1,744,328Z" transform="translate(-502 -206)" fill="none"/></svg>