<svg id="Layer_1" data-name="Layer 1" xmlns="http://www.w3.org/2000/svg" viewBox="0 0 291.37 224.26" fill="currentColor"><title>mail</title><g opacity="0.9"><path d="M26.32,35.6,127.57,150.48a30.33,30.33,0,0,0,45.5,0L272.56,37.59a10.48,10.48,0,0,1,2.82-2.22,34.18,34.18,0,0,0-13.76-2.89H39a34.3,34.3,0,0,0-13.21,2.64C26,35.29,26.16,35.42,26.32,35.6Z" transform="translate(-4.63 -32.48)"/><path d="M290.71,48.6a10.77,10.77,0,0,1-1.94,3.28L189.28,164.76a51.94,51.94,0,0,1-77.92,0L10.12,49.89c-.21-.24-.35-.5-.53-.74a34.21,34.21,0,0,0-5,17.72V222.35A34.39,34.39,0,0,0,39,256.74h222.6A34.39,34.39,0,0,0,296,222.35V66.87A34.22,34.22,0,0,0,290.71,48.6Z" transform="translate(-4.63 -32.48)"/></g></svg>