<svg id="Layer_1" data-name="Layer 1" xmlns="http://www.w3.org/2000/svg" xmlns:xlink="http://www.w3.org/1999/xlink" viewBox="0 0 758.7 796.17"><defs><clipPath id="clip-path" transform="translate(-269.62 -4)"><circle cx="648.97" cy="386.17" r="379.35" fill="none"/></clipPath></defs><title>myavatar</title><circle cx="379.35" cy="379.35" r="379.35" fill="#e1e2e2"/><path d="M830.91,284" transform="translate(-269.62 -4)" fill="#fb8122"/><g clip-path="url(#clip-path)"><path d="M753.2,547.43h-8.85c43-25.06,74.92-67.65,88.66-118.32,2.74-12.19,5-24.51,6.84-36.88a518.1,518.1,0,0,0,5.69-73.13,201.11,201.11,0,0,0,1.21-21v-3.85c0-4.7-.28-9.44-.76-14.09A235.93,235.93,0,0,0,832.87,235a226.35,226.35,0,0,0-25.39-46.45c-12.49-15.89-38-24.5-58.09-29-1.28-.3-2.49-.58-3.71-.82l-2.68-.55-.48-.09-1.53-.28c-1-.21-2-.36-3-.55-2-.33-3.81-.64-5.54-.91-.56-.1-1.1-.16-1.64-.25-1.21-.15-2.32-.34-3.33-.46-.34,0-.66-.09-1-.12s-.82-.12-1.18-.15c-.54-.06-1.05-.09-1.5-.16a.34.34,0,0,1-.17,0,10.91,10.91,0,0,1-1.13-.12c-1-.09-1.5-.12-1.5-.12-20.92-9.56-8.37-25.12-8.37-25.12-19.53-9-46,9-46,9C647.16,119.26,604,107.71,604,107.71c13.94,11,16.71,31.17,16.71,31.17a222.67,222.67,0,0,0-41.61-20.11c-72.8-26-125.67,2-125.67,2,30,0,44.67,34.07,50.21,51.61a103.74,103.74,0,0,1,2.77,10.17,40.4,40.4,0,0,1-9.33-1.71c-14.78-4.58-19.25-16.38-19.25-16.38-13.26,33.16-13.06,67.81-13.06,67.81H437.08c13,70,22.67,129.35,26.49,153.34a1.94,1.94,0,0,0,.06.4q2.63,21.59,7.09,42.93c13.74,50.66,45.69,93.26,88.66,118.32h-8.85C476,547.28,413,599.93,392.86,672,516.32,826.6,732.34,843.75,875.33,710.3A357.06,357.06,0,0,0,910.73,672C890.74,600.08,827.75,547.43,753.2,547.43ZM497.75,424.93a165.29,165.29,0,0,1-4.67-20.88,13.82,13.82,0,0,1,.54,2.11c4.38-27.83,8.14-52.74,13-73.89C513.35,303,522.2,281,537.72,268.44c19.88-16.1,82.95-7.52,101.72-6s48-5.93,62.08-13.57c39.05-21.08,57.17,12.07,57.17,12.07a436.4,436.4,0,0,1,30.93,65.7c9,24,17.35,52.44,20.52,81.56-1,5.59-2.29,11.15-3.84,16.59C786.51,494,725,544.65,652.14,544.65S517.45,494.11,497.75,424.93ZM739.07,552.38c0,52-39,94.27-87.13,94.36s-87.3-42.26-87.3-94.36v-2c3.53,1.93,7.09,3.82,10.74,5.54a180.92,180.92,0,0,0,153,0c3.64-1.72,7.2-3.61,10.74-5.54Z" transform="translate(-269.62 -4)" fill="#12232e"/><path d="M717.22,333.07a49.08,49.08,0,0,0-45.76,31.35H632.13a49.07,49.07,0,1,0,3.31,17.72c0-1.38-.07-2.74-.18-4.09h33.08c-.12,1.35-.19,2.71-.19,4.09a49.07,49.07,0,1,0,49.07-49.07ZM586.37,417.58a35.44,35.44,0,1,1,35.44-35.44A35.48,35.48,0,0,1,586.37,417.58Zm130.85,0a35.44,35.44,0,1,1,35.44-35.44A35.48,35.48,0,0,1,717.22,417.58Z" transform="translate(-269.62 -4)" fill="#fb8122"/></g></svg>