<svg id="Layer_1" data-name="Layer 1" xmlns="http://www.w3.org/2000/svg" viewBox="0 0 99.49 89.79"><title>react-icon</title><circle cx="49.75" cy="44.89" r="11.48" fill="#61dbfb"/><path d="M303,323.63c0-7.19-8.12-13.42-20.77-17.2.43-2,.78-3.92,1-5.77,1.25-10.49-.93-17.84-6.15-20.69s-12.58-.71-20.72,6c-1,.86-2.08,1.79-3.12,2.77-1-1-2.07-1.91-3.11-2.77-8.15-6.73-15.51-8.87-20.73-6s-7.4,10.2-6.14,20.69c.22,1.86.58,3.79,1,5.77-12.65,3.78-20.76,10-20.76,17.2s8.11,13.43,20.76,17.21c-.42,2-.78,3.91-1,5.77-1.26,10.49.92,17.83,6.14,20.69a10.4,10.4,0,0,0,5,1.23c4.51,0,9.91-2.47,15.7-7.25,1-.86,2.08-1.8,3.11-2.78,1,1,2.08,1.92,3.12,2.78,5.79,4.78,11.18,7.25,15.69,7.25a10.35,10.35,0,0,0,5-1.23c5.22-2.85,7.4-10.2,6.15-20.69-.23-1.86-.58-3.8-1-5.77C294.88,337.06,303,330.82,303,323.63Zm-44.19-34.69c6.75-5.59,12.75-7.63,16.45-5.61s5.22,8.17,4.18,16.87c-.2,1.68-.53,3.44-.9,5.22a97.34,97.34,0,0,0-13.19-2.23A95.46,95.46,0,0,0,256,291.46C256.91,290.57,257.86,289.72,258.81,288.94Zm9.56,42.94q-2.46,4.49-5.17,8.57c-3.16.26-6.48.4-9.95.4s-6.78-.14-9.94-.4c-1.8-2.72-3.54-5.58-5.17-8.57-1.5-2.74-2.87-5.5-4.1-8.25,1.23-2.74,2.6-5.5,4.1-8.25q2.45-4.49,5.17-8.56c3.16-.26,6.48-.41,9.94-.41s6.79.15,9.95.41c1.8,2.72,3.54,5.57,5.17,8.56,1.5,2.75,2.87,5.51,4.1,8.25C271.24,326.38,269.87,329.14,268.37,331.88Zm6.08-3.49a91.55,91.55,0,0,1,3.21,9.75,89.79,89.79,0,0,1-9.59,1.78c1.26-2,2.49-4.07,3.65-6.2C272.69,332,273.59,330.17,274.45,328.39Zm-21.2,24.71a88,88,0,0,1-7.13-8.63c2.32.13,4.7.21,7.13.21s4.81-.08,7.14-.21A86.68,86.68,0,0,1,253.25,353.1Zm-14.82-13.18a89.13,89.13,0,0,1-9.58-1.78,91.42,91.42,0,0,1,3.2-9.75c.87,1.78,1.76,3.56,2.73,5.33C235.94,335.85,237.17,337.91,238.43,339.92Zm-6.37-21.05a90.81,90.81,0,0,1-3.21-9.75,89.2,89.2,0,0,1,9.58-1.77c-1.25,2-2.48,4.06-3.65,6.2C233.81,315.32,232.92,317.1,232.06,318.87Zm21.19-24.71a88,88,0,0,1,7.14,8.64q-3.5-.21-7.14-.21t-7.13.21A89.39,89.39,0,0,1,253.25,294.16Zm18.48,19.39c-1.17-2.14-2.4-4.19-3.66-6.2a89.4,89.4,0,0,1,9.59,1.77,90.81,90.81,0,0,1-3.21,9.75C273.59,317.1,272.69,315.32,271.73,313.55ZM227.07,300.2c-1-8.7.48-14.85,4.18-16.87a6.59,6.59,0,0,1,3.21-.76c3.56,0,8.19,2.19,13.24,6.37,1,.78,1.9,1.63,2.85,2.52a96.23,96.23,0,0,0-9.39,11.73A97.08,97.08,0,0,0,228,305.42C227.59,303.64,227.27,301.88,227.07,300.2Zm-19.74,23.43c0-5,6.64-10.14,17.83-13.51a98.39,98.39,0,0,0,4.73,13.51,98.85,98.85,0,0,0-4.73,13.51C214,333.78,207.33,328.61,207.33,323.63Zm40.37,34.7C241,363.91,235,366,231.25,363.94s-5.22-8.17-4.18-16.87c.2-1.69.52-3.44.9-5.23a95.65,95.65,0,0,0,13.18,2.23,95.59,95.59,0,0,0,9.39,11.74C249.6,356.7,248.65,357.54,247.7,358.33Zm31.74-11.27c1,8.71-.48,14.86-4.18,16.88s-9.7,0-16.45-5.61c-.95-.79-1.9-1.63-2.85-2.53a94.71,94.71,0,0,0,9.39-11.73,97.34,97.34,0,0,0,13.19-2.23C278.91,343.63,279.23,345.38,279.44,347.06Zm1.91-9.92a98.85,98.85,0,0,0-4.73-13.51,98.39,98.39,0,0,0,4.73-13.51c11.18,3.37,17.82,8.54,17.82,13.51S292.53,333.78,281.35,337.14Z" transform="translate(-203.51 -278.74)" fill="#61dbfb"/></svg>