<svg
  id="Layer_1"
  data-name="Layer 1"
  xmlns="http://www.w3.org/2000/svg"
  viewBox="0 0 465.14 55.86"
  fill="currentColor"
>
  <path
    d="M300.29,402.5q0,1.5-5,7.38h-.69c-.52-.2-.84-1-1-2.26a11,11,0,0,0-2.73-6.49,7.25,7.25,0,0,0-5.54-2.52,7.13,7.13,0,0,0-5.23,2.21,7.27,7.27,0,0,0-2.19,5.29,10,10,0,0,0,1.39,4.78c.93,1.7,3.33,4.41,7.21,8.1s6.38,6.65,7.48,8.84a14,14,0,0,1,1.65,6.25q0,6.85-5.94,12.06a20.41,20.41,0,0,1-13.91,5.22A18.19,18.19,0,0,1,265,448.3c-2.84-2-4.27-3.7-4.27-5,0-.72.79-2.39,2.35-5s2.46-3.92,2.69-3.92a2,2,0,0,1,1.75.71,5.76,5.76,0,0,1,.72,2.64q.57,6,2.9,8.27a8.32,8.32,0,0,0,6.06,2.27,10.11,10.11,0,0,0,7.12-2.83,8.23,8.23,0,0,0,1.86-10.64q-1.19-2.18-6.66-7.39t-7.17-8.84a16.53,16.53,0,0,1-1.69-7,16,16,0,0,1,4.5-11,15.3,15.3,0,0,1,12-5,16.16,16.16,0,0,1,9.41,2.6Q300.29,400.77,300.29,402.5Z"
    transform="translate(-260.74 -395.5)"
  />
  <path
    d="M339.88,441.89q-9.12,9.47-15,9.47a5.73,5.73,0,0,1-4.32-1.79,6.26,6.26,0,0,1-1.72-4.52q0-4.62,3.54-13c1.26-3,1.89-5,1.89-5.92s-.5-1.58-1.5-1.58-2.52.7-4.46,2.1a38.79,38.79,0,0,0-6.16,5.71,92.26,92.26,0,0,0-1.35,17l-8.57,2a74.3,74.3,0,0,1,2.65-30.13,97.43,97.43,0,0,1,9.92-21q5-2,8.8-3.33a27.54,27.54,0,0,1,4.29-1.29c.66,0,1.23.54,1.69,1.62a10.28,10.28,0,0,1,.69,4,20.26,20.26,0,0,1-2.5,9,81.12,81.12,0,0,1-7.85,11.94c3.42-2,5.69-3.22,6.82-3.73a8.34,8.34,0,0,1,3.47-.77,4,4,0,0,1,3.17,1.41,5.46,5.46,0,0,1,1.22,3.71q0,3.47-2.76,10.74t-2.76,9.11a2.34,2.34,0,0,0,.52,1.5,1.51,1.51,0,0,0,1.21.65q2.46,0,9.08-7.42Zm-26.66-15.77q13.72-16,13.73-23.54c0-1.54-.42-2.31-1.27-2.31q-2.12,0-6,7.58A78.8,78.8,0,0,0,313.22,426.12Z"
    transform="translate(-260.74 -395.5)"
  />
  <path
    d="M358.77,441.89q-9,9.47-13.47,9.47a4.92,4.92,0,0,1-4.15-2.52,11.1,11.1,0,0,1-1.7-6.33q0-8.2,5.54-22.7l9.78-2h.46l-3.85,12Q349,437.28,349,440.47a3.53,3.53,0,0,0,.55,2.06,1.68,1.68,0,0,0,1.41.79,5.18,5.18,0,0,0,3-1.1,37.65,37.65,0,0,0,4.79-4.75ZM358,402.73q0,9.22-6.81,9.23a8.41,8.41,0,0,1-5.66-2,27.93,27.93,0,0,0,3.47-7.62,10.14,10.14,0,0,0,4.88,1.89A6.91,6.91,0,0,0,358,402.73Z"
    transform="translate(-260.74 -395.5)"
  />
  <path
    d="M415.43,441.89a64.89,64.89,0,0,1-8.23,7,11.76,11.76,0,0,1-6.66,2.35,5,5,0,0,1-4-1.75,7.1,7.1,0,0,1-1.48-4.71,35.85,35.85,0,0,1,2.08-10.55q2.08-6.37,2.08-7.77a1.1,1.1,0,0,0-1.27-1.23,2.08,2.08,0,0,0-.92.27,9.74,9.74,0,0,0-1.31.77c-.49.36-1,.8-1.58,1.31s-1.15,1.1-1.77,1.77-1.33,1.4-2,2.19a8.86,8.86,0,0,0-2,3.35l-1.28,5.5-2.32,9.08L375,451.28l3.73-15.85c.28-1.16.62-2.85,1-5.08a37.36,37.36,0,0,0,.58-4c0-.87-.3-1.31-.89-1.31a1.82,1.82,0,0,0-.76.27,7.44,7.44,0,0,0-1.31.81c-.57.41-1.17.9-1.81,1.46s-1.44,1.32-2.23,2.12-1.72,1.78-2.62,2.81a9.52,9.52,0,0,0-2.31,4.84c-.41,2.21-.69,4.18-.84,5.93s-.29,3.69-.31,5.84l-8.54,2q-.31-4.43-.31-7.38a45.89,45.89,0,0,1,1.46-12.26,79.85,79.85,0,0,1,4.77-12.17l9.31-1.81A87.2,87.2,0,0,0,370,429.66q10.35-12,15.85-12a3.91,3.91,0,0,1,3.25,1.63,6.9,6.9,0,0,1,1.25,4.29c0,.82-.13,2.34-.39,4.54a86.58,86.58,0,0,1,9.34-8.48,9.28,9.28,0,0,1,5.21-2,4.21,4.21,0,0,1,3.46,1.69,6.71,6.71,0,0,1,1.35,4.31,33.57,33.57,0,0,1-2.26,10.58q-2.27,6.46-2.27,8.54c0,1.44.53,2.15,1.58,2.15a5.44,5.44,0,0,0,2.78-1.32,60.69,60.69,0,0,0,6.24-6.1Z"
    transform="translate(-260.74 -395.5)"
  />
  <path
    d="M456.52,441.89A69.67,69.67,0,0,1,448,449a11.44,11.44,0,0,1-6.16,2.29,5.31,5.31,0,0,1-4.67-2.42,11.63,11.63,0,0,1-1.64-6.58,42.15,42.15,0,0,1-7.58,6.86,11.83,11.83,0,0,1-6.54,2.22,5.54,5.54,0,0,1-4.69-2.43,10.93,10.93,0,0,1-1.77-6.58q0-8,5.39-22.54l10.27-2.05q-6.33,18.45-6.35,23.67,0,3.69,2.77,3.69c1.33,0,3-1.08,5-3.25a16,16,0,0,0,3.7-5.67l5-16.39,10.47-2.12q-3.63,11.58-5,16.27a28.44,28.44,0,0,0-1.35,6.58c0,2.42.82,3.62,2.47,3.62q2,0,5.93-3.65l3.23-3Z"
    transform="translate(-260.74 -395.5)"
  />
  <path
    d="M482,441.89a55.4,55.4,0,0,1-9.18,7.1,15,15,0,0,1-7.52,2.29,8.06,8.06,0,0,1-6.63-3.19q-2.52-3.19-2.52-8.58,0-8.08,3.5-19.39a122.58,122.58,0,0,1,8.5-20.85l9.77-3.62a2.53,2.53,0,0,1,.69-.15c.75,0,1.36.54,1.83,1.63a11.34,11.34,0,0,1,.71,4.41,34,34,0,0,1-3.61,15.19,69.24,69.24,0,0,1-11.31,15.7c-.21,2.67-.31,4.5-.31,5.5a9.94,9.94,0,0,0,1.23,5.31,3.72,3.72,0,0,0,3.27,2,8.29,8.29,0,0,0,4.42-1.5,52.75,52.75,0,0,0,7.16-6.23Zm-14.74-15a47,47,0,0,0,7.93-12.17q3-6.75,3-11.6a5.29,5.29,0,0,0-.42-2.29q-.43-.87-1.08-.87-1.43,0-4.14,7.09A133.6,133.6,0,0,0,467.21,426.85Z"
    transform="translate(-260.74 -395.5)"
  />
  <path
    d="M558.31,441.89a64.89,64.89,0,0,1-8.23,7,11.76,11.76,0,0,1-6.66,2.35,5,5,0,0,1-4-1.75,7.1,7.1,0,0,1-1.48-4.71A35.85,35.85,0,0,1,540,434.27q2.09-6.37,2.08-7.77a1.11,1.11,0,0,0-1.27-1.23,2.08,2.08,0,0,0-.92.27,9.16,9.16,0,0,0-1.31.77,19.79,19.79,0,0,0-1.58,1.31q-.84.76-1.77,1.77c-.67.67-1.33,1.4-2,2.19a8.86,8.86,0,0,0-2,3.35l-1.28,5.5-2.32,9.08-9.75,1.77,3.73-15.85c.28-1.16.62-2.85,1-5.08a37.36,37.36,0,0,0,.58-4c0-.87-.3-1.31-.89-1.31a1.85,1.85,0,0,0-.77.27,7.79,7.79,0,0,0-1.3.81c-.57.41-1.17.9-1.81,1.46s-1.44,1.32-2.23,2.12-1.72,1.78-2.62,2.81a9.52,9.52,0,0,0-2.31,4.84c-.41,2.21-.69,4.18-.84,5.93s-.29,3.69-.31,5.84l-8.54,2q-.31-4.43-.31-7.38a45.89,45.89,0,0,1,1.46-12.26,79.85,79.85,0,0,1,4.77-12.17l9.31-1.81a87.2,87.2,0,0,0-3.88,12.12q10.35-12,15.85-12a3.91,3.91,0,0,1,3.25,1.63,6.9,6.9,0,0,1,1.25,4.29c0,.82-.13,2.34-.39,4.54a86.58,86.58,0,0,1,9.34-8.48,9.28,9.28,0,0,1,5.21-2,4.21,4.21,0,0,1,3.46,1.69,6.71,6.71,0,0,1,1.35,4.31A33.57,33.57,0,0,1,550,434.2q-2.26,6.46-2.27,8.54c0,1.44.53,2.15,1.58,2.15a5.44,5.44,0,0,0,2.78-1.32,60.69,60.69,0,0,0,6.24-6.1Z"
    transform="translate(-260.74 -395.5)"
  />
  <path
    d="M587.09,441.89q-9.66,9.47-14.89,9.47a4.9,4.9,0,0,1-4-2,7.48,7.48,0,0,1-1.62-4.9q0-5.43,5.81-14.54a21.72,21.72,0,0,1-6.23,2,44.66,44.66,0,0,1-7.85,9.92h-.88v-3.46a51.13,51.13,0,0,0,5.42-6.69q-3.32-1.47-3.31-4.35a12.35,12.35,0,0,1,2-6.33,6.23,6.23,0,0,1,5.56-3.37q3,0,3,3.08a21.29,21.29,0,0,1-1.73,6.93q6.39-.7,11.16-9.77l3.5-.16-3.58,9.85q-2.24,6.22-2.89,8.48a14.71,14.71,0,0,0-.65,4,4.08,4.08,0,0,0,.75,2.58,2.43,2.43,0,0,0,2,1,4.36,4.36,0,0,0,2.65-.94q1.27-.94,5.7-5.21Z"
    transform="translate(-260.74 -395.5)"
  />
  <path
    d="M606,441.89q-9,9.47-13.46,9.47a4.91,4.91,0,0,1-4.15-2.52,11.1,11.1,0,0,1-1.7-6.33q0-8.2,5.54-22.7l9.77-2h.47l-3.85,12q-2.39,7.47-2.39,10.66a3.53,3.53,0,0,0,.56,2.06,1.68,1.68,0,0,0,1.41.79,5.18,5.18,0,0,0,3-1.1,37.77,37.77,0,0,0,4.78-4.75Zm-.76-39.16q0,9.22-6.81,9.23a8.41,8.41,0,0,1-5.66-2,27.62,27.62,0,0,0,3.46-7.62,10.2,10.2,0,0,0,4.89,1.89A6.93,6.93,0,0,0,605.25,402.73Z"
    transform="translate(-260.74 -395.5)"
  />
  <path
    d="M647.1,441.89a66.59,66.59,0,0,1-8.44,7.45,9.66,9.66,0,0,1-5.14,1.94,4.88,4.88,0,0,1-4.33-2.66c-1.06-1.77-1.61-4.36-1.63-7.77a26.28,26.28,0,0,1-6.87,7.77q-3.71,2.65-6.71,2.66a7.29,7.29,0,0,1-5.77-3.1,11.17,11.17,0,0,1-2.5-7.25q0-8.58,6.25-15.91t13.44-7.33a7.09,7.09,0,0,1,3.14.58,10.08,10.08,0,0,1,2.48,2l5.5-23a49.93,49.93,0,0,1,9.09-1.58c.51,0,.77.21.77.62s-.64,2.94-1.92,8q-7.69,30.16-7.69,36.39a4,4,0,0,0,.62,2.35,1.85,1.85,0,0,0,1.61.88q2.46,0,8.1-6.38Zm-27.81,2q3.76,0,7-6.39a26.36,26.36,0,0,0,3.27-12,5.87,5.87,0,0,0-1-3.62,3.21,3.21,0,0,0-2.68-1.34q-3.57,0-6.92,6.67t-3.35,12.06a5.26,5.26,0,0,0,1,3.35A3.25,3.25,0,0,0,619.29,443.93Z"
    transform="translate(-260.74 -395.5)"
  />
  <path
    d="M684.84,441.89q-9.12,9.47-15,9.47a5.74,5.74,0,0,1-4.33-1.79,6.29,6.29,0,0,1-1.71-4.52q0-4.62,3.54-13c1.25-3,1.88-5,1.88-5.92s-.5-1.58-1.5-1.58-2.51.7-4.46,2.1a39.22,39.22,0,0,0-6.16,5.71,93.23,93.23,0,0,0-1.34,17l-8.58,2a74.88,74.88,0,0,1,2.65-30.13,97.5,97.5,0,0,1,9.93-21q5-2,8.79-3.33a27.54,27.54,0,0,1,4.29-1.29c.66,0,1.23.54,1.69,1.62a10.28,10.28,0,0,1,.69,4,20.26,20.26,0,0,1-2.5,9,80.93,80.93,0,0,1-7.84,11.94c3.41-2,5.68-3.22,6.81-3.73a8.37,8.37,0,0,1,3.47-.77,4,4,0,0,1,3.18,1.41,5.5,5.5,0,0,1,1.21,3.71q0,3.47-2.76,10.74T674,442.74a2.4,2.4,0,0,0,.52,1.5,1.51,1.51,0,0,0,1.21.65q2.47,0,9.08-7.42Zm-26.66-15.77q13.74-16,13.74-23.54c0-1.54-.43-2.31-1.27-2.31q-2.13,0-6,7.58A78.79,78.79,0,0,0,658.18,426.12Z"
    transform="translate(-260.74 -395.5)"
  />
  <path
    d="M725.89,441.89a80.55,80.55,0,0,1-8.81,7.62,9.21,9.21,0,0,1-5.08,1.77q-6.07,0-5.73-10.73a39.8,39.8,0,0,1-7.1,8.11,10.58,10.58,0,0,1-6.71,2.62,7,7,0,0,1-5.75-3.18,12.63,12.63,0,0,1-2.37-7.79,21,21,0,0,1,3.17-11,26,26,0,0,1,8.14-8.46q5-3.24,8.77-3.23a6.79,6.79,0,0,1,6.73,4.42l7.87-4.35h2.16L717.78,429q-2.61,8.5-2.62,11.65c0,2.21.78,3.31,2.35,3.31a5.2,5.2,0,0,0,3.3-1.6q1.82-1.59,5.08-4.86ZM697.73,444q3.84,0,7.25-6.56a26.54,26.54,0,0,0,3.4-12.1,5.3,5.3,0,0,0-1-3.37,3.14,3.14,0,0,0-2.57-1.21q-3.86,0-7.29,6.54a26.13,26.13,0,0,0-3.45,12,5.27,5.27,0,0,0,1,3.37A3.18,3.18,0,0,0,697.73,444Z"
    transform="translate(-260.74 -395.5)"
  />
</svg>
