<svg id="Layer_1" data-name="Layer 1" xmlns="http://www.w3.org/2000/svg" viewBox="0 0 615.93 177.38"><path d="M459.11,506.11c-2.8,6.11-5.48,12.27-8.43,18.3-2.4,4.9-4.39,10.31-8,14.22-2.24,2.46-7,3-10.74,3.47-.92.12-3.36-3.34-3.3-5.09.45-12.78.18-25.74,2.4-38.25,2.9-16.3,7.66-32.3,12.05-48.31,2.3-8.39,5.92-16.28,12.94-22,1.41-1.15,2.75-2.78,4.37-3.2,3-.78,7.23-2.16,9.13-.79s2.43,6,1.93,8.88A187.13,187.13,0,0,1,450.44,492a35.19,35.19,0,0,0-4.38,20.49c3.12-4.6,5.89-9.27,9.26-13.47a81.86,81.86,0,0,1,9.74-9.79,10.89,10.89,0,0,1,5-2c3.8-.74,6.1.41,5.81,4.92-.88,13.63-1.77,27.26-2.32,40.91-.28,6.81.12,13.65.33,20.47,0,1.41.63,2.81,1.33,5.75,2.74-3.27,5-5.39,6.56-7.89,8.84-13.79,13-29.41,16.89-45,1.62-6.43,2.25-13.1,3.47-19.64s3.55-12.49,11.72-13.12c.8-.06,1.52-1.12,2.15-1.61,5.88,2.54,4.26,7.25,3.36,11.28-3.56,15.83-5.54,31.78-4.86,48a9.21,9.21,0,0,0,1.29,4.8c2.27-3.11,4.89-6,6.74-9.37,4.09-7.39,8.57-14.72,11.37-22.61,1.66-4.7.81-10.45.45-15.68-.45-6.34,5.33-12,11.45-10.39,1.19.32,2.53,2.18,2.79,3.53,1.54,8,2.76,16,4.14,24.06A45.33,45.33,0,0,0,554,510c4.59-7.74,8.75-14.45,12.59-21.35,3.35-6,7.19-11.39,13.44-14.79,4.66-2.52,7.26-1.26,7.61,4.1.76,11.8,1.5,23.59,3.09,35.75,4.63-8.7,9-17.54,14-26A138.06,138.06,0,0,1,616.36,471c1.13-1.39,4.61-2.32,6.08-1.59s2.41,4,2.11,5.89c-.92,5.82-2.69,11.51-3.85,17.3a97.8,97.8,0,0,0-2.25,14.77c-.78,17.62-1.44,35.26-1.62,52.9,0,4.17,1.95,8.37,3,12.55l1.86.08c1.25-1.42,2.88-2.64,3.68-4.28,6.38-13.12,12.88-26.19,18.78-39.52,4.28-9.67,7.5-19.81,11.58-29.57,4-9.55,12.34-15,20.6-20.33a9,9,0,0,1,5.22-1.49,11.67,11.67,0,0,1,5.77,2.21c.46.34-.74,2.91-1.36,5.13,2.22-1.49,4.1-2.85,6.07-4.06,7.79-4.8,13.5-1.54,14.27,7.66.22,2.58,3.32,5,3.26,7.49a177.37,177.37,0,0,1-2.19,21c-.4,2.69-1.86,5.21-3,8.3,6.87,2.32,12.79.79,17.13-3.43,4.69-4.54,9.25-9.88,11.84-15.77,3.33-7.56,9.72-12.09,14.63-18,2.88-3.48,7.13-6,11-8.42,4.17-2.63,8.61-3.33,13,.68l-2.34,3.57.44.68c2.19-1.44,4.21-3.44,6.62-4.18,2.79-.85,6.41-1.64,8.79-.54,2.71,1.24,6.14,3.71,4.48,8.15a1.76,1.76,0,0,0,.25,1.4c7.11,10.38,3.31,20.64-.27,30.92-.53,1.52-1,3.09-1.58,5.06,7,2.19,12.64.29,17.51-3.78,6.41-5.37,10.79-12,11.81-20.7a208.52,208.52,0,0,1,16-59.5,24.53,24.53,0,0,1,15.93-14.07c4.49-1.41,7-.13,7.19,4.59.22,4.11-.8,8.27-1.16,12.43-1.6,18.5-8.45,35.19-17.11,51.38-2.45,4.57-4.8,9.86-4.93,14.88a148,148,0,0,0,2,29.21c1.54,8.76,6.9,10.16,13.54,4.15,9.57-8.65,17.51-19.53,20.38-31.51,4-16.55,14.22-24.29,28.68-29,5.3-1.7,10.82-3.41,16.3-3.66,6.95-.32,9.69,3.75,8.93,10.69-1.09,9.8-5.49,17.89-11.64,25.48-5.08,6.27-9.18,13.33-13.65,20.09a7.67,7.67,0,0,0-.5,2.56,14.19,14.19,0,0,0,3.14.19c7.08-1.22,12.92.4,17.85,6.12,3.25,3.77,5.24,3.37,7.46-1.19,5.3-10.86,10.14-21.95,15.28-32.89,1.78-3.79,3.92-7.43,5.9-11.14l1.6.56c-.35,2.15-.23,4.51-1.11,6.42-6.6,14.3-13.4,28.52-20.14,42.76-.28.6-.69,1.14-1,1.75-1.94,4.37-4.69,7.79-2.79,13.86,2.35,7.51-2.2,14.83-6.86,21a144,144,0,0,1-10.6,11.94c-2.51,2.66-11.2,4-14.09,1.88-1.47-1.1-3-3.74-2.71-5.28.86-3.94,2-8.2,4.39-11.37,5.15-6.92,11.11-13.24,16.75-19.8,4.52-5.27,4.67-9.57.55-16.19-2.23-3.58-7.22-4.76-13.07-2.8-2.34.79-4.45,2.23-6.73,3.23-5,2.17-9.94,4.24-15,6.38-2.15-6.36.24-9.91,3.66-14.15,6.46-8,11.68-17,17.44-25.56a30.16,30.16,0,0,1,3.55-4.79c4.48-4.47,5.14-9.79,3.9-16.3-8,2.11-14.91,5.69-20.61,11.47a3.32,3.32,0,0,0-.75,1.81c-1,6.56-3,8.45-9.93,9.12A93.14,93.14,0,0,1,853,551.27c-6.12,6.62-14.09,9-23,8.57-3.58-.19-6-2-7.71-5.31-4.92-9.28-5.38-19.47-6.52-29.53-.28-2.48-.31-5-.46-7.47l-1.89-1.91c-.49,1.4-.62,3.11-1.52,4.16-6.51,7.62-15.12,11-24.86,12.35a11,11,0,0,0-6.53,3.67c-6.39,8-13.66,14.41-23.82,17.26-11,3.1-19.5,1.55-21.58-11.59-1.26-8-.74-16.2-.91-24.32,0-1.74.38-3.49-.22-5.52-.84,1.34-1.67,2.7-2.54,4-6.51,9.81-15.91,14.63-27.33,16.47a13.5,13.5,0,0,0-7.77,4.2c-6.35,7.84-13.63,13.95-23.54,16.81-10.5,3-19.32,1.18-21.45-11.41-.51-3.06-1.25-6.09-2.16-10.47-2.55,7.27-4.15,13.54-6.89,19.25a275.07,275.07,0,0,1-13.6,24.74c-4.09,6.66-11.84,6.94-18.29,7-2.54,0-6.16-5.79-7.61-9.59-5.31-14-3.39-28.58-2.49-43,.58-9.22,2.47-18.36,3.91-28.48-3.45,6.27-6,12.24-9.8,17.31-2.36,3.18-6.45,5.17-10,7.28-.53.31-3.32-1.52-3.54-2.65-1.32-6.83-2.33-13.73-3.17-20.64-.7-5.71-1-11.47-2.13-17.28-10,14.09-17.6,29-21.82,45.57-1.43,5.62-5.51,10.07-11,10.94-3.46.54-5.28-.87-5.21-4.7a124,124,0,0,0-1.15-22.48c-4.24,7.49-8.35,15-12.77,22.43-3.14,5.25-7.32,9.35-13.52,11.11-6.69,1.9-10.37.11-11.72-6.75-.74-3.72-.5-7.63-.79-11.44a5.31,5.31,0,0,0-1.15-2.85c-2.18,12.86-6.65,24.4-15,34.35-3,3.54-6.41,6-11.14,5.31s-7.47-4.39-8.16-8.54a176.44,176.44,0,0,1-2.58-25.2c-.17-8.75.84-17.52,1.33-26.29Zm233,23.75c-3.51-6.81-6.19-12-8.87-17.18l1-.54,1.8,2.82c-5.48-8.48-3-17.8-3.15-27.4-3.62,2.27-7.11,4.59-9.26,7.81-2.33,3.49-3.61,7.74-5,11.79-3.4,10-2.36,20.06,1,29.84,1.78,5.22,5.7,6.78,10.23,3.71C684.56,537.52,688.46,533.16,692.1,529.86Zm75-43.41c-3.58,3-7,4.8-8.77,7.61a56.85,56.85,0,0,0-6,13.43c-3.18,10-2.28,20.07,1.1,29.85,1.58,4.57,4.64,5.71,9.17,3.9,6.19-2.48,9.75-7.66,13.36-13.11-4.92-5.16-6-11.27-7.69-17.74C766.31,502.7,767.78,495.48,767.13,486.45ZM834.92,492l2,.76c3.12-6.88,7-13.54,9.18-20.7,2.57-8.33,3.94-17.06,5.34-25.7.58-3.5,1-7.53-3.38-11C841.4,454.19,838.76,473.21,834.92,492Zm-385.7-3.58c8-16.32,15.16-32.88,12.72-51.78C453.31,452.75,451.74,470.67,449.22,488.38Zm330,30.38c7.4-4.69,5.88-27.4-3-33.07C774.92,497.24,772.48,508.31,779.24,518.76Zm-83.78,0c7.53-4.21,6.15-27.22-3-33C691.4,497.28,688.8,508.32,695.46,518.73Zm219.43,50.13-1.19-.55c-3.57,4.07-6.94,8.35-10.78,12.15a10.36,10.36,0,0,0-3.3,9.37c.21,1.43.89,3.63,1.81,3.9a4.86,4.86,0,0,0,4.32-1.38C910.57,585.22,914.67,577.73,914.89,568.86Z" transform="translate(-333.01 -423.86)" fill="currentColor"/><path d="M390.73,491.17c1.09-4,1.87-6.67,2.5-9.34,1.22-5.14,3.08-10.25,3.36-15.45.64-11.85-9.47-22.06-21.41-22.34-7.38-.18-14.8-.14-20.82,5a11.65,11.65,0,0,0-3.75,5.33c-1.92,7.44.06,14.18,4.81,20.09,5.61,7,11.32,13.88,17.05,20.76,12.37,14.87,19.88,31.7,20.17,51.25.1,6.94.88,14.44-1.37,20.7-3.35,9.31-7.72,18.79-19,22.09-4.78,1.4-9.12,3.58-14.34,1.67-5.06-1.86-7.87-5.08-8.39-10.58-.71-7.37.52-14.34,4.63-20.53,3.62-5.47,7.6-10.7,11.43-16l1.83.53c.23,1.6.88,3.26.63,4.77-.93,5.54-2.17,11-3.26,16.54a10.9,10.9,0,0,0-.12,2.49c.12,4.33,3.19,9.61,5.54,9.09,4.1-.92,4.25-4.7,4.68-8,1.89-14.29.94-28.63-4.94-41.64-4.4-9.76-10.09-19.23-18.31-26.87-4-3.68-6.48-8.93-9.62-13.48a21.26,21.26,0,0,0-1.83-2.9c-10.24-10.45-9.46-28.15,1.5-38,12-10.77,25.64-17.33,42-16.28,25.87,1.66,37.25,26.07,26.31,46.78-1.39,2.64-3.1,5.12-4.73,7.64C402.23,489.35,397.13,489.75,390.73,491.17Z" transform="translate(-333.01 -423.86)" fill="currentColor"/><path d="M512.75,462.3c-1.7-9.61-3.31-18.73-5.11-28.89l6.12-1.93-.57-1.54,5-3.45c10.31,3.91,13.49,11.52,8.27,21.72A31.16,31.16,0,0,1,512.75,462.3Z" transform="translate(-333.01 -423.86)" fill="currentColor"/></svg>